<?xml version="1.0" encoding="iso-8859-1"?>
<!-- Generator: Adobe Illustrator 18.1.0, SVG Export Plug-In . SVG Version: 6.00 Build 0)  -->
<svg version="1.1" id="Layer_1" xmlns="http://www.w3.org/2000/svg" xmlns:xlink="http://www.w3.org/1999/xlink" x="0px" y="0px"
	 viewBox="0 0 505.255 114.592" style="enable-background:new 0 0 505.255 114.592;" xml:space="preserve">
<g>
	<path style="fill:#59697A;" d="M111.12,76.951c10.924,0,18.854-7.538,18.854-17.924V24.192h-7.763v34.449
		c0,7.067-4.353,11.633-11.09,11.633c-6.691,0-11.014-4.566-11.014-11.633V24.192h-7.841v34.835
		C92.264,69.413,100.194,76.951,111.12,76.951z"/>
	<path style="fill:#59697A;" d="M172.761,54.594l10.798,21.915l0.016,0.024l9.112-0.041l-12.01-23.083l1.46-0.624
		c5.842-2.494,9.192-7.288,9.192-13.153c0-9.092-6.764-15.441-16.449-15.441h-20.174v52.294h7.841V54.454h10.145L172.761,54.594z
		 M162.548,30.871h11.634c5.48,0,9.307,3.603,9.307,8.762s-3.827,8.762-9.307,8.762h-11.634V30.871z"/>
	<path style="fill:#59697A;" d="M232.126,23.727c-17.087,0-18.932,14.487-18.932,20.715v10.861c0,6.509,1.845,21.648,18.932,21.648
		c14.946,0,18.934-12.535,18.934-19.941V44.521C251.06,39.643,249.695,23.727,232.126,23.727z M243.217,51.269
		c0,8.467,0,19.005-11.09,19.005s-11.09-11.27-11.09-15.512v-7.139c0-8.331,0.857-17.219,11.09-17.219
		c11.09,0,11.09,10.488,11.09,16.754V51.269z"/>
	<polygon style="fill:#B6D433;" points="313.566,24.192 298.297,55.977 298.07,55.509 282.946,24.192 274.706,24.192 
		274.706,76.486 282.549,76.486 282.549,39.613 295.555,65.237 301.009,65.237 313.963,39.593 313.963,76.486 321.804,76.486 
		321.804,24.192 	"/>
	<path style="fill:#B6D433;" d="M367.266,24.192h-6.389l-18.96,52.294l8.044-0.011l3.364-9.762h21.733l3.288,9.773h8.032
		L367.266,24.192z M355.332,60.577l9.075-26.116l8.769,26.116H355.332z"/>
	<path style="fill:#B6D433;" d="M424.962,24.192h-18.466v52.294h17.925c16.742,0,19.242-12.25,19.242-19.552V45.217
		C443.663,31.265,437.371,24.192,424.962,24.192z M435.822,51.581c0,8.544,0,18.228-11.868,18.228h-9.616V30.871h9.616
		c11.868,0,11.868,9.806,11.868,17.685V51.581z"/>
	<polygon style="fill:#B6D433;" points="505.255,30.871 505.255,24.192 471.811,24.192 471.811,76.486 505.255,76.486 
		505.255,69.809 479.654,69.809 479.654,53.446 501.452,53.446 501.452,46.767 479.654,46.767 479.654,30.871 	"/>
	<g>
		<path style="fill:#59697A;" d="M27.829,114.335v-11.088c0-0.079,0.048-0.159,0.16-0.159h4.021c2.004,0,3.35,1.201,3.35,3.012
			c0,1.139-0.53,2.051-1.683,2.547c1.363,0.578,1.858,1.476,1.858,2.725c0,1.955-1.282,3.125-3.381,3.125h-4.166
			C27.893,114.496,27.829,114.416,27.829,114.335z M31.883,108.133c1.426,0,2.259-0.737,2.259-1.969c0-1.249-0.85-1.988-2.259-1.988
			h-2.82v3.958H31.883z M32.028,113.422c1.41,0,2.291-0.816,2.291-2.099c0-1.281-0.881-2.099-2.291-2.099h-2.965v4.198H32.028z"/>
		<path style="fill:#59697A;" d="M44.814,114.335v-11.088c0-0.079,0.064-0.159,0.16-0.159h0.898c0.096,0,0.16,0.079,0.16,0.159
			v4.535h3.061c2.131,0,3.524,1.346,3.524,3.365c0,2.003-1.41,3.349-3.524,3.349h-4.119
			C44.863,114.496,44.814,114.416,44.814,114.335z M48.98,113.405c1.523,0,2.404-0.833,2.404-2.258c0-1.428-0.881-2.275-2.404-2.275
			h-2.948v4.533H48.98z M54.14,114.335v-11.088c0-0.079,0.048-0.159,0.16-0.159h0.898c0.112,0,0.16,0.079,0.16,0.159v11.088
			c0,0.082-0.064,0.161-0.16,0.161h-0.898C54.204,114.496,54.14,114.416,54.14,114.335z"/>
		<path style="fill:#59697A;" d="M64.62,110.139v-2.805c0-2.853,1.731-4.343,4.007-4.343c1.249,0,2.163,0.465,3.06,1.281
			c0.081,0.065,0.081,0.161,0.017,0.224l-0.578,0.595c-0.064,0.079-0.143,0.063-0.224,0c-0.69-0.657-1.298-1.011-2.259-1.011
			c-2.051,0-2.805,1.586-2.805,3.365v2.694c0,2.499,1.442,3.363,2.805,3.363c0.962,0,1.57-0.368,2.275-1.026
			c0.065-0.063,0.144-0.048,0.208,0.017l0.561,0.578c0.081,0.079,0.096,0.159,0,0.238c-0.977,0.835-1.747,1.283-3.044,1.283
			C66.094,114.592,64.62,112.878,64.62,110.139z"/>
		<path style="fill:#59697A;" d="M80.099,109.929v-2.323c0-2.821,1.443-4.615,3.99-4.615c2.533,0,3.99,1.793,3.99,4.615v2.403
			c0,2.788-1.41,4.584-3.99,4.584C81.542,114.592,80.099,112.878,80.099,109.929z M86.861,109.64v-1.81
			c0-1.938-0.577-3.751-2.772-3.751c-2.115,0-2.772,1.683-2.772,3.768v1.969c0,1.813,0.561,3.686,2.772,3.686
			S86.861,111.674,86.861,109.64z"/>
		<path style="fill:#59697A;" d="M103.766,103.246c0.065-0.079,0.096-0.159,0.241-0.159h1.106c0.128,0,0.176,0.063,0.112,0.144
			l-3.462,4.261l4.023,6.859c0.048,0.079,0.016,0.144-0.112,0.144H104.6c-0.144,0-0.193-0.079-0.241-0.161l-3.397-5.912
			l-2.404,2.901v3.012c0,0.082-0.064,0.161-0.16,0.161h-0.898c-0.096,0-0.16-0.079-0.16-0.161v-11.088
			c0-0.079,0.048-0.159,0.16-0.159h0.898c0.112,0,0.16,0.079,0.16,0.159v6.411L103.766,103.246z"/>
		<path style="fill:#59697A;" d="M113.396,109.929v-2.323c0-2.821,1.443-4.615,3.99-4.615c2.533,0,3.99,1.793,3.99,4.615v2.403
			c0,2.788-1.41,4.584-3.99,4.584C114.84,114.592,113.396,112.878,113.396,109.929z M120.159,109.64v-1.81
			c0-1.938-0.577-3.751-2.772-3.751c-2.115,0-2.772,1.683-2.772,3.768v1.969c0,1.813,0.561,3.686,2.772,3.686
			S120.159,111.674,120.159,109.64z"/>
		<path style="fill:#59697A;" d="M130.639,114.335v-11.088c0-0.079,0.048-0.159,0.16-0.159h6.762c0.081,0,0.16,0.048,0.16,0.159
			v0.77c0,0.111-0.079,0.159-0.16,0.159h-5.704v4.023h4.823c0.081,0,0.16,0.048,0.16,0.161v0.768c0,0.113-0.079,0.161-0.16,0.161
			h-4.823v4.117h5.689c0.079,0,0.16,0.048,0.16,0.161v0.768c0,0.113-0.081,0.161-0.16,0.161h-6.747
			C130.703,114.496,130.639,114.416,130.639,114.335z"/>
		<path style="fill:#59697A;" d="M163.553,103.246c0.064-0.079,0.095-0.159,0.24-0.159h1.106c0.128,0,0.176,0.063,0.112,0.144
			l-3.462,4.261l4.023,6.859c0.048,0.079,0.016,0.144-0.112,0.144h-1.074c-0.144,0-0.193-0.079-0.241-0.161l-3.397-5.912
			l-2.404,2.901v3.012c0,0.082-0.064,0.161-0.16,0.161h-0.898c-0.096,0-0.16-0.079-0.16-0.161v-11.088
			c0-0.079,0.048-0.159,0.16-0.159h0.898c0.112,0,0.16,0.079,0.16,0.159v6.411L163.553,103.246z"/>
		<path style="fill:#59697A;" d="M172.557,114.335l4.07-11.136c0.017-0.048,0.065-0.111,0.177-0.111h0.752
			c0.113,0,0.161,0.063,0.177,0.111l4.086,11.136c0.031,0.082,0.016,0.161-0.096,0.161h-0.994c-0.128,0-0.143-0.079-0.176-0.161
			l-0.865-2.419h-4.999l-0.865,2.419c-0.033,0.082-0.048,0.161-0.177,0.161h-0.993C172.542,114.496,172.525,114.416,172.557,114.335
			z M179.335,110.858l-2.131-6.04l-2.147,6.04H179.335z"/>
		<path style="fill:#59697A;" d="M195.31,114.335v-4.646c-0.657,0.272-1.987,0.609-3.044,0.609c-1.827,0-3.221-0.802-3.221-2.932
			v-4.119c0-0.079,0.048-0.159,0.16-0.159h0.898c0.112,0,0.16,0.079,0.16,0.159v3.926c0,1.666,1.041,2.051,2.227,2.051
			c0.962,0,2.115-0.289,2.82-0.64v-5.337c0-0.079,0.033-0.159,0.144-0.159h0.914c0.112,0,0.16,0.079,0.16,0.159v11.088
			c0,0.082-0.064,0.161-0.144,0.161h-0.929C195.374,114.496,195.31,114.416,195.31,114.335z"/>
		<path style="fill:#59697A;" d="M206.239,114.335v-11.088c0-0.079,0.048-0.159,0.16-0.159h6.762c0.081,0,0.16,0.048,0.16,0.159
			v0.77c0,0.111-0.079,0.159-0.16,0.159h-5.704v4.023h4.823c0.081,0,0.16,0.048,0.16,0.161v0.768c0,0.113-0.079,0.161-0.16,0.161
			h-4.823v4.117h5.689c0.079,0,0.16,0.048,0.16,0.161v0.768c0,0.113-0.081,0.161-0.16,0.161h-6.747
			C206.302,114.496,206.239,114.416,206.239,114.335z"/>
		<path style="fill:#59697A;" d="M221.814,110.139v-2.805c0-2.853,1.731-4.343,4.007-4.343c1.249,0,2.163,0.465,3.06,1.281
			c0.081,0.065,0.081,0.161,0.017,0.224l-0.578,0.595c-0.064,0.079-0.144,0.063-0.224,0c-0.689-0.657-1.298-1.011-2.259-1.011
			c-2.051,0-2.805,1.586-2.805,3.365v2.694c0,2.499,1.442,3.363,2.805,3.363c0.962,0,1.571-0.368,2.275-1.026
			c0.064-0.063,0.144-0.048,0.208,0.017l0.561,0.578c0.081,0.079,0.096,0.159,0,0.238c-0.977,0.835-1.747,1.283-3.044,1.283
			C223.289,114.592,221.814,112.878,221.814,110.139z"/>
		<path style="fill:#59697A;" d="M240.193,114.335v-10.159h-3.139c-0.081,0-0.161-0.063-0.161-0.159v-0.77
			c0-0.096,0.081-0.159,0.161-0.159h7.499c0.079,0,0.159,0.048,0.159,0.159v0.77c0,0.111-0.079,0.159-0.159,0.159h-3.142v10.159
			c0,0.082-0.063,0.161-0.159,0.161h-0.898C240.258,114.496,240.193,114.416,240.193,114.335z"/>
		<path style="fill:#59697A;" d="M253.239,114.335v-11.088c0-0.079,0.048-0.159,0.159-0.159h4.023c2.003,0,3.349,1.201,3.349,3.012
			c0,1.139-0.527,2.051-1.683,2.547c1.363,0.578,1.861,1.476,1.861,2.725c0,1.955-1.283,3.125-3.382,3.125h-4.167
			C253.304,114.496,253.239,114.416,253.239,114.335z M257.293,108.133c1.425,0,2.258-0.737,2.258-1.969
			c0-1.249-0.847-1.988-2.258-1.988h-2.821v3.958H257.293z M257.437,113.422c1.411,0,2.292-0.816,2.292-2.099
			c0-1.281-0.881-2.099-2.292-2.099h-2.966v4.198H257.437z"/>
		<path style="fill:#59697A;" d="M269.772,109.929v-2.323c0-2.821,1.442-4.615,3.991-4.615c2.53,0,3.989,1.793,3.989,4.615v2.403
			c0,2.788-1.411,4.584-3.989,4.584C271.214,114.592,269.772,112.878,269.772,109.929z M276.535,109.64v-1.81
			c0-1.938-0.575-3.751-2.771-3.751c-2.116,0-2.773,1.683-2.773,3.768v1.969c0,1.813,0.561,3.686,2.773,3.686
			C275.974,113.502,276.535,111.674,276.535,109.64z"/>
		<path style="fill:#59697A;" d="M297.577,114.335v-11.088c0-0.079,0.063-0.159,0.159-0.159h6.553c0.082,0,0.161,0.048,0.161,0.159
			v0.77c0,0.111-0.079,0.159-0.161,0.159h-5.496v10.159c0,0.096-0.048,0.161-0.159,0.161h-0.898
			C297.625,114.496,297.577,114.416,297.577,114.335z"/>
		<path style="fill:#59697A;" d="M310.028,114.335l4.068-11.136c0.017-0.048,0.065-0.111,0.176-0.111h0.754
			c0.113,0,0.161,0.063,0.176,0.111l4.088,11.136c0.031,0.082,0.014,0.161-0.096,0.161h-0.994c-0.128,0-0.144-0.079-0.176-0.161
			l-0.864-2.419h-5l-0.867,2.419c-0.031,0.082-0.048,0.161-0.176,0.161h-0.994C310.011,114.496,309.995,114.416,310.028,114.335z
			 M316.805,110.858l-2.13-6.04l-2.147,6.04H316.805z"/>
		<path style="fill:#59697A;" d="M327.604,114.335v-11.088c0-0.079,0.048-0.159,0.159-0.159h3.958c2.116,0,3.527,1.346,3.527,3.349
			c0,2.02-1.411,3.365-3.527,3.365h-2.901v4.533c0,0.082-0.063,0.161-0.159,0.161h-0.898
			C327.667,114.496,327.604,114.416,327.604,114.335z M331.61,108.711c1.521,0,2.419-0.833,2.419-2.275
			c0-1.425-0.898-2.261-2.419-2.261h-2.79v4.535H331.61z"/>
		<path style="fill:#59697A;" d="M341.786,114.335l4.068-11.136c0.017-0.048,0.065-0.111,0.176-0.111h0.754
			c0.113,0,0.161,0.063,0.176,0.111l4.088,11.136c0.031,0.082,0.014,0.161-0.096,0.161h-0.994c-0.128,0-0.144-0.079-0.176-0.161
			l-0.864-2.419h-5l-0.867,2.419c-0.031,0.082-0.048,0.161-0.176,0.161h-0.994C341.769,114.496,341.752,114.416,341.786,114.335z
			 M348.563,110.858l-2.131-6.04l-2.147,6.04H348.563z"/>
		<path style="fill:#59697A;" d="M359.365,114.335v-11.088c0-0.079,0.048-0.159,0.159-0.159h0.898c0.113,0,0.159,0.079,0.159,0.159
			v4.952h5.417v-4.952c0-0.079,0.034-0.159,0.144-0.159h0.915c0.111,0,0.159,0.079,0.159,0.159v11.088
			c0,0.082-0.063,0.161-0.144,0.161h-0.929c-0.079,0-0.144-0.079-0.144-0.161v-5.046h-5.417v5.046c0,0.082-0.063,0.161-0.159,0.161
			h-0.898C359.427,114.496,359.365,114.416,359.365,114.335z"/>
		<path style="fill:#59697A;" d="M379.057,114.335v-10.159h-3.142c-0.079,0-0.159-0.063-0.159-0.159v-0.77
			c0-0.096,0.079-0.159,0.159-0.159h7.499c0.082,0,0.161,0.048,0.161,0.159v0.77c0,0.111-0.079,0.159-0.161,0.159h-3.139v10.159
			c0,0.082-0.065,0.161-0.161,0.161h-0.898C379.119,114.496,379.057,114.416,379.057,114.335z"/>
		<path style="fill:#59697A;" d="M392.117,114.335v-11.088c0-0.079,0.063-0.159,0.159-0.159h0.898c0.096,0,0.159,0.079,0.159,0.159
			v9.102l5.754-9.199c0.017-0.031,0.065-0.063,0.128-0.063h0.915c0.111,0,0.159,0.079,0.159,0.159v11.088
			c0,0.082-0.063,0.161-0.159,0.161h-0.898c-0.096,0-0.161-0.079-0.161-0.161v-9.117l-5.751,9.213
			c-0.017,0.034-0.065,0.065-0.128,0.065h-0.915C392.165,114.496,392.117,114.416,392.117,114.335z"/>
		<path style="fill:#59697A;" d="M409.999,114.335v-11.088c0-0.079,0.048-0.159,0.159-0.159h3.958c2.116,0,3.527,1.346,3.527,3.349
			c0,2.02-1.411,3.365-3.527,3.365h-2.901v4.533c0,0.082-0.063,0.161-0.159,0.161h-0.898
			C410.061,114.496,409.999,114.416,409.999,114.335z M414.004,108.711c1.521,0,2.419-0.833,2.419-2.275
			c0-1.425-0.898-2.261-2.419-2.261h-2.79v4.535H414.004z"/>
		<path style="fill:#59697A;" d="M425.926,109.929v-2.323c0-2.821,1.442-4.615,3.991-4.615c2.53,0,3.989,1.793,3.989,4.615v2.403
			c0,2.788-1.411,4.584-3.989,4.584C427.368,114.592,425.926,112.878,425.926,109.929z M432.688,109.64v-1.81
			c0-1.938-0.575-3.751-2.771-3.751c-2.116,0-2.773,1.683-2.773,3.768v1.969c0,1.813,0.561,3.686,2.773,3.686
			C432.127,113.502,432.688,111.674,432.688,109.64z"/>
		<path style="fill:#59697A;" d="M443.153,114.335v-11.088c0-0.079,0.048-0.159,0.161-0.159h4.02c2.003,0,3.349,1.201,3.349,3.012
			c0,1.139-0.527,2.051-1.683,2.547c1.363,0.578,1.861,1.476,1.861,2.725c0,1.955-1.283,3.125-3.382,3.125h-4.165
			C443.218,114.496,443.153,114.416,443.153,114.335z M447.207,108.133c1.425,0,2.261-0.737,2.261-1.969
			c0-1.249-0.85-1.988-2.261-1.988h-2.821v3.958H447.207z M447.351,113.422c1.411,0,2.292-0.816,2.292-2.099
			c0-1.281-0.881-2.099-2.292-2.099h-2.966v4.198H447.351z"/>
		<path style="fill:#59697A;" d="M458.423,114.335l4.071-11.136c0.017-0.048,0.065-0.111,0.176-0.111h0.754
			c0.113,0,0.161,0.063,0.176,0.111l4.088,11.136c0.031,0.082,0.014,0.161-0.096,0.161h-0.994c-0.128,0-0.144-0.079-0.176-0.161
			l-0.864-2.419h-5l-0.867,2.419c-0.031,0.082-0.048,0.161-0.176,0.161h-0.994C458.408,114.496,458.391,114.416,458.423,114.335z
			 M465.202,110.858l-2.131-6.04l-2.147,6.04H465.202z"/>
		<path style="fill:#59697A;" d="M476.001,114.335v-11.088c0-0.079,0.048-0.159,0.159-0.159h0.898c0.113,0,0.159,0.079,0.159,0.159
			v4.952h5.417v-4.952c0-0.079,0.034-0.159,0.144-0.159h0.915c0.111,0,0.159,0.079,0.159,0.159v11.088
			c0,0.082-0.063,0.161-0.144,0.161h-0.929c-0.079,0-0.144-0.079-0.144-0.161v-5.046h-5.417v5.046c0,0.082-0.063,0.161-0.159,0.161
			h-0.898C476.064,114.496,476.001,114.416,476.001,114.335z"/>
		<path style="fill:#59697A;" d="M493.115,109.929v-2.323c0-2.821,1.442-4.615,3.991-4.615c2.53,0,3.989,1.793,3.989,4.615v2.403
			c0,2.788-1.411,4.584-3.989,4.584C494.557,114.592,493.115,112.878,493.115,109.929z M499.877,109.64v-1.81
			c0-1.938-0.575-3.751-2.771-3.751c-2.116,0-2.773,1.683-2.773,3.768v1.969c0,1.813,0.561,3.686,2.773,3.686
			C499.316,113.502,499.877,111.674,499.877,109.64z"/>
	</g>
	<path style="fill:#59697A;" d="M36.154,69.809V53.446h21.798v-6.679H36.154V30.871h25.291c-2.799-2.918-6.247-5.221-10.006-6.679
		H28.311v52.294h21.537c4.125-1.315,7.927-3.618,11.032-6.677H36.154z"/>
	<g>
		<path style="fill:#B6D433;" d="M84.076,44.642c0-12.424-5.312-24.036-14.585-31.903l-2.305,2.621l0.738,7.92
			c6.705,7.101,10.397,16.355,10.397,26.066c0,15.224-9.394,29.081-23.284,35.005C72.087,79.526,84.076,63.448,84.076,44.642z"/>
		<polygon style="fill:#CADB37;" points="47.921,12.876 52.786,14.974 52.294,9.698 55.793,5.72 50.623,4.557 47.921,0 
			45.218,4.557 40.048,5.72 43.547,9.698 43.055,14.974 		"/>
		<polygon style="fill:#DDDD1F;" points="22.45,16.119 26.853,18.017 26.408,13.244 29.573,9.644 24.896,8.592 22.45,4.469 
			20.005,8.592 15.327,9.644 18.493,13.244 18.048,18.017 		"/>
		<polygon style="fill:#EFD519;" points="7.021,31.861 10.585,33.397 10.225,29.533 12.788,26.619 9.001,25.767 7.021,22.429 
			5.042,25.767 1.255,26.619 3.818,29.533 3.458,33.397 		"/>
		<polygon style="fill:#F5CC26;" points="7.662,51.277 7.366,48.103 9.471,45.71 6.361,45.011 4.735,42.27 3.109,45.011 0,45.71 
			2.105,48.103 1.809,51.277 4.735,50.015 		"/>
		<polygon style="fill:#FFCA26;" points="9.513,65.475 11.809,66.465 11.576,63.976 13.227,62.098 10.788,61.55 9.513,59.4 
			8.238,61.55 5.799,62.098 7.45,63.976 7.218,66.465 		"/>
	</g>
</g>
</svg>
